PathFileType	4	(X/Y/Z)	/Users/itak/Documents/Research/Walk-IL/dataset/trc/00351_00011.trc
DataRate	CameraRate	NumFrames	NumMarkers	Units	OrigDataRate	OrigDataStartFrame	OrigNumFrames
100.000000	100.000000	4	53	mm	100.000000	0	751
Frame#	Time	RPSI			LPSI			L3			STRN			T10			C7			CLAV			RBAK			LBAK			LSHO			LUPA			LAEL			LAOL			LWTS			LWPS			LFRA			LIFD			LHPS			LHTS			RSHO			RUPA			RAEL			RAOL			RWTS			RWPS			RFRA			RIFD			RHTS			RHPS			RBHD			LFHD			RFHD			LBHD			LHIP			RHIP			RASI			LASI			LKNE			LTHI			LANK			LTIP			LTOE			LMT1			LMT5			LHEE			RKNE			RTHI			RANK			RTIP			RTOE			RMT1			RMT5			RHEE			
		X1	Y1	Z1	X2	Y2	Z2	X3	Y3	Z3	X4	Y4	Z4	X5	Y5	Z5	X6	Y6	Z6	X7	Y7	Z7	X8	Y8	Z8	X9	Y9	Z9	X10	Y10	Z10	X11	Y11	Z11	X12	Y12	Z12	X13	Y13	Z13	X14	Y14	Z14	X15	Y15	Z15	X16	Y16	Z16	X17	Y17	Z17	X18	Y18	Z18	X19	Y19	Z19	X20	Y20	Z20	X21	Y21	Z21	X22	Y22	Z22	X23	Y23	Z23	X24	Y24	Z24	X25	Y25	Z25	X26	Y26	Z26	X27	Y27	Z27	X28	Y28	Z28	X29	Y29	Z29	X30	Y30	Z30	X31	Y31	Z31	X32	Y32	Z32	X33	Y33	Z33	X34	Y34	Z34	X35	Y35	Z35	X36	Y36	Z36	X37	Y37	Z37	X38	Y38	Z38	X39	Y39	Z39	X40	Y40	Z40	X41	Y41	Z41	X42	Y42	Z42	X43	Y43	Z43	X44	Y44	Z44	X45	Y45	Z45	X46	Y46	Z46	X47	Y47	Z47	X48	Y48	Z48	X49	Y49	Z49	X50	Y50	Z50	X51	Y51	Z51	X52	Y52	Z52	X53	Y53	Z53	

1	0	420.6209106445312	974.3311157226562	886.6163330078125	420.854736328125	974.5538330078125	1015.232055664062	422.9655151367188	1027.970947265625	944.8935546875	202.8167572021484	1221.088989257812	958.3994140625	439.9861755371094	1148.13232421875	954.4631958007812	404.3773193359375	1396.549438476562	971.8822631835938	248.4725494384766	1345.674438476562	962.9097290039062	452.2424926757812	1257.975830078125	900.4580688476562	411.2725524902344	1358.362060546875	1072.573974609375	325.9382019042969	1378.583740234375	1128.674194335938	337.1907348632812	1257.161743164062	1195.012451171875	312.9675903320312	1052.626220703125	1203.487548828125	375.0884704589844	1039.34619140625	1147.688110351562	219.2548522949219	809.3206787109375	1155.343017578125	257.0314331054688	798.5108642578125	1212.549682617188	296.6018676757812	948.9951782226562	1209.079956054688	218.6906585693359	648.67138671875	1149.290771484375	261.2707214355469	728.6796875	1206.737426757812	207.7365112304688	730.3193969726562	1170.324096679688	350.2169189453125	1387.110107421875	806.5941772460938	357.8939514160156	1321.989868164062	741.6671752929688	335.2783508300781	1052.489868164062	710.6904296875	384.2090759277344	1044.93359375	791.58984375	220.2007751464844	830.3837890625	770.6015625	250.1565704345703	812.5267333984375	702.107177734375	305.1112365722656	986.427490234375	706.5513916015625	203.0272064208984	658.80810546875	770.5741577148438	183.7577056884766	730.6629638671875	758.8470458984375	231.4522552490234	728.5751953125	707.6495971679688	361.1067504882812	1603.090576171875	883.8937377929688	187.2678985595703	1617.274658203125	997.110595703125	199.6273193359375	1614.753295898438	896.7357788085938	370.69775390625	1602.978881835938	1028.87255859375	337.0339050292969	921.195068359375	1122.09326171875	341.6793518066406	923.2235717773438	776.5849609375	236.6838226318359	949.9208374023438	820.857177734375	214.3524322509766	944.2725830078125	1059.652587890625	315.4810485839844	468.2661743164062	1131.647338867188	301.029052734375	603.8237915039062	1132.606323242188	400.0805053710938	45.34371185302734	1141.097290039062	359.5747985839844	252.8394470214844	1149.558349609375	190.0530548095703	42.95436477661133	1095.83056640625	254.9094696044922	34.67583465576172	1050.397216796875	275.3145751953125	41.21303939819336	1163.673706054688	428.5624694824219	40.41747665405273	1071.298095703125	330.1929626464844	462.3130493164062	769.2509765625	274.2704467773438	717.8406372070312	760.15673828125	396.3926086425781	49.23728942871094	759.0390014648438	330.2235107421875	345.1295166015625	767.8425903320312	205.0137634277344	42.40427017211914	812.9585571289062	262.5120544433594	38.63407897949219	853.0780029296875	294.7373046875	35.74502944946289	740.5247192382812	447.9165649414062	48.16860961914062	805.5288696289062	
2	0.01	420.6133422851562	974.3029174804688	886.5380859375	420.9114685058594	974.5051879882812	1015.123840332031	422.9586181640625	1027.950439453125	944.79638671875	202.8334503173828	1221.104370117188	958.4381713867188	440.1028747558594	1148.075805664062	954.2705078125	404.424072265625	1396.521484375	971.8115234375	248.5157165527344	1345.670043945312	962.9270629882812	452.2283935546875	1257.95703125	900.3466796875	411.4408264160156	1358.35986328125	1072.504760742188	326.2071838378906	1378.600830078125	1128.65966796875	337.5763244628906	1257.196411132812	1195.023071289062	313.2904968261719	1052.611450195312	1203.492431640625	375.3288879394531	1039.305297851562	1147.565673828125	219.4910888671875	809.3070068359375	1155.745849609375	257.3531799316406	798.5722045898438	1212.736206054688	296.9594421386719	949.08740234375	1209.198608398438	218.648193359375	648.8252563476562	1149.531616210938	261.4555053710938	728.5554809570312	1206.877807617188	207.9074554443359	730.3406372070312	1170.708251953125	350.1534118652344	1387.082885742188	806.5336303710938	357.8218688964844	1321.981323242188	741.6140747070312	335.2831115722656	1052.480224609375	710.6306762695312	384.1968688964844	1044.9033203125	791.5249633789062	220.2797546386719	830.3255615234375	770.5202026367188	250.2592010498047	812.478271484375	702.0478515625	305.0883483886719	986.406494140625	706.4583740234375	203.1728363037109	658.728515625	770.540771484375	184.0464782714844	730.5772705078125	758.8386840820312	231.5876770019531	728.5430908203125	707.6006469726562	361.0761108398438	1603.05859375	883.9031982421875	187.3644409179688	1617.267822265625	997.1483154296875	199.6487731933594	1614.726928710938	896.751220703125	370.8119201660156	1602.9912109375	1028.822387695312	337.0333557128906	921.163818359375	1121.978149414062	341.5923767089844	923.279052734375	776.4591064453125	236.5852661132812	949.8853759765625	820.8733520507812	214.5382995605469	944.2357177734375	1059.613891601562	315.4935913085938	468.1980285644531	1131.696411132812	301.1880493164062	603.8233032226562	1132.718994140625	400.0731201171875	45.3432502746582	1141.080444335938	359.5952453613281	252.8216705322266	1149.510620117188	190.0512847900391	42.94792938232422	1095.833984375	254.9104919433594	34.66288375854492	1050.394775390625	275.3810729980469	41.09867477416992	1163.603637695312	428.5514526367188	40.38581085205078	1071.27978515625	330.0516662597656	462.3072204589844	769.2130737304688	274.6585388183594	718.3007202148438	759.6146850585938	396.3855895996094	49.21185684204102	759.0218505859375	330.161376953125	345.1169738769531	767.8426513671875	205.0454711914062	42.44036102294922	812.9437255859375	262.5326843261719	38.64458847045898	853.0565795898438	294.7394104003906	35.73786163330078	740.5252685546875	447.9396362304688	48.15715789794922	805.5086059570312	
3	0.02	420.6012878417969	974.27099609375	886.442626953125	420.9801330566406	974.4521484375	1014.984924316406	422.9481201171875	1027.924072265625	944.6806030273438	202.8623352050781	1221.117431640625	958.493896484375	440.2343139648438	1148.011474609375	954.0341796875	404.4812316894531	1396.488647460938	971.724609375	248.5682830810547	1345.6630859375	962.955322265625	452.2076110839844	1257.928344726562	900.2144775390625	411.6793212890625	1358.360229492188	1072.397583007812	326.5356750488281	1378.608642578125	1128.642211914062	338.0372314453125	1257.2255859375	1195.026977539062	313.6728210449219	1052.590698242188	1203.502685546875	375.6145935058594	1039.262451171875	1147.408325195312	219.7333221435547	809.2990112304688	1156.200073242188	257.7048034667969	798.6539916992188	1212.956176757812	297.3895568847656	949.1666870117188	1209.329467773438	218.6189880371094	648.9781494140625	1149.826538085938	261.6749877929688	728.4271240234375	1207.05908203125	208.0843811035156	730.3721923828125	1171.166137695312	350.0692443847656	1387.048706054688	806.463623046875	357.7346496582031	1321.96826171875	741.5545043945312	335.2889404296875	1052.468139648438	710.558349609375	384.1773986816406	1044.863403320312	791.4443969726562	220.367919921875	830.2548828125	770.4265747070312	250.3781127929688	812.4166870117188	701.9774780273438	305.0614624023438	986.3809204101562	706.34326171875	203.3485412597656	658.618408203125	770.509521484375	184.3798065185547	730.4688110351562	758.8346557617188	231.7442779541016	728.4999389648438	707.5468139648438	361.0521850585938	1603.022338867188	883.9028930664062	187.4800415039062	1617.263061523438	997.2034301757812	199.6719360351562	1614.69677734375	896.7822875976562	370.9388427734375	1603.000122070312	1028.755249023438	337.0359191894531	921.1234741210938	1121.830932617188	341.4847717285156	923.3421630859375	776.3077392578125	236.4469146728516	949.8418579101562	820.9010009765625	214.7797393798828	944.183837890625	1059.575927734375	315.5328063964844	468.1115112304688	1131.747802734375	301.4131469726562	603.8072509765625	1132.8447265625	400.0675659179688	45.34262847900391	1141.060424804688	359.6388549804688	252.7973327636719	1149.44677734375	190.0506286621094	42.94580841064453	1095.840576171875	254.9127349853516	34.6495361328125	1050.390625	275.4499206542969	40.97626876831055	1163.528930664062	428.5400695800781	40.34613800048828	1071.2568359375	329.8724060058594	462.2986755371094	769.1685791015625	275.0081481933594	718.7471923828125	759.0992431640625	396.3771057128906	49.18084335327148	758.9993896484375	330.0834045410156	345.1012573242188	767.8421020507812	205.094482421875	42.4982795715332	812.9214477539062	262.5568237304688	38.65789794921875	853.0310668945312	294.7440185546875	35.73093414306641	740.5253295898438	447.9667358398438	48.14181900024414	805.4812622070312	
4	0.03	420.5836181640625	974.2384033203125	886.3328857421875	421.0568542480469	974.39990234375	1014.820495605469	422.9337158203125	1027.8916015625	944.5545654296875	202.9062347412109	1221.125366210938	958.5684204101562	440.3667907714844	1147.944946289062	953.768310546875	404.5458374023438	1396.452880859375	971.626953125	248.6272583007812	1345.653442382812	962.9962768554688	452.1790161132812	1257.888916015625	900.0700073242188	411.9855041503906	1358.361572265625	1072.248901367188	326.9035949707031	1378.600830078125	1128.621826171875	338.5399780273438	1257.240478515625	1195.019775390625	314.0840759277344	1052.5615234375	1203.5205078125	375.9220275878906	1039.221069335938	1147.223266601562	219.9489135742188	809.3021850585938	1156.665283203125	258.0494995117188	798.7494506835938	1213.190673828125	297.8637390136719	949.2145385742188	1209.45751953125	218.6083068847656	649.0997314453125	1150.16162109375	261.9093627929688	728.3076171875	1207.270751953125	208.2395172119141	730.4150390625	1171.66162109375	349.9662170410156	1387.009155273438	806.3905029296875	357.6361999511719	1321.95068359375	741.494384765625	335.2937927246094	1052.453857421875	710.478515625	384.1499328613281	1044.815185546875	791.3517456054688	220.4567565917969	830.17578125	770.328857421875	250.5027465820312	812.3449096679688	701.9015502929688	305.0311279296875	986.3529052734375	706.2125854492188	203.5416564941406	658.4832153320312	770.48583984375	184.7228088378906	730.3442993164062	758.833984375	231.9085235595703	728.4465942382812	707.494140625	361.0412902832031	1602.984497070312	883.8894653320312	187.6073303222656	1617.262573242188	997.2767944335938	199.6936950683594	1614.665649414062	896.8335571289062	371.0683898925781	1603.001831054688	1028.676513671875	337.0458374023438	921.0745239257812	1121.656494140625	341.3606872558594	923.4089965820312	776.1392822265625	236.2660217285156	949.793701171875	820.9400634765625	215.0617828369141	944.1189575195312	1059.549438476562	315.6058654785156	468.0123901367188	1131.79345703125	301.7001647949219	603.7666625976562	1132.960205078125	400.0647888183594	45.34149932861328	1141.038818359375	359.71435546875	252.7659606933594	1149.367919921875	190.0514831542969	42.94961547851562	1095.849853515625	254.9166107177734	34.63667678833008	1050.384521484375	275.5110168457031	40.86246490478516	1163.459228515625	428.5294494628906	40.29985046386719	1071.230590820312	329.666259765625	462.2866821289062	769.1226806640625	275.2487487792969	719.1099853515625	758.6969604492188	396.3680419921875	49.14616775512695	758.972900390625	329.9933776855469	345.0834045410156	767.84033203125	205.1624450683594	42.58036804199219	812.8902587890625	262.5825805664062	38.67345809936523	853.0040283203125	294.7509460449219	35.72520065307617	740.5249633789062	447.9952697753906	48.12278366088867	805.4481811523438	
